# xmcd
#
# Track frame offsets: 
#        150
#        16361
#        32296
#        58767
#        82159
#        110566
#        134766
#        149408
#        179201
#        200963
#
# Disc length: 3171 seconds
#
# Revision: 0
# Processed by: cddbd v1.5.1PL2 Copyright (c) Steve Scherf et al.
# Submitted via: ExactAudioCopy v0.95b3
#
DISCID=9f0c610a
DTITLE=Mike McKenna and Slidewinder - Mike McKenna and Slidewinder
DYEAR=1996
DGENRE=Rock
TTITLE0=She's Alright
TTITLE1=Pack Of Lies
TTITLE2=Dreams
TTITLE3=Let Me Luv You
TTITLE4=Cherry Beach Shuffle
TTITLE5=Ain't Nobody's Business
TTITLE6=Bright Lights, Big City
TTITLE7=100 Shades Of Blue
TTITLE8=Hanging On A Wire
TTITLE9=Wild Wild Women
EXTD=
EXTT0=
EXTT1=
EXTT2=
EXTT3=
EXTT4=
EXTT5=
EXTT6=
EXTT7=
EXTT8=
EXTT9=
PLAYORDER=
